<svg width="16" height="16" viewBox="0 0 16 16" fill="none" xmlns="http://www.w3.org/2000/svg">
<g clip-path="url(#clip0_163_343)">
<path d="M14.6 3.33335H12V1.33335C12 0.966687 11.7 0.666687 11.3333 0.666687C10.9666 0.666687 10.6666 0.966687 10.6666 1.33335V3.33335H8.06663C7.67329 3.33335 7.36663 3.67335 7.39996 4.06669L7.47996 4.87335C9.93329 5.44002 12 7.18002 12 10L12.0133 15.3334H13.1466C13.7066 15.3334 14.1666 14.9 14.2333 14.3534L15.26 4.06669C15.3 3.67335 14.9933 3.33335 14.6 3.33335V3.33335ZM9.99996 14H1.33329C0.966626 14 0.666626 14.3 0.666626 14.6667C0.666626 15.0334 0.966626 15.3334 1.33329 15.3334H9.99996C10.3666 15.3334 10.6666 15.0334 10.6666 14.6667C10.6666 14.3 10.3666 14 9.99996 14ZM1.39996 10H9.93329C10.3466 10 10.6733 9.62669 10.5933 9.22669C10.16 7.07335 7.91329 5.99335 5.66663 5.99335C3.41996 5.99335 1.17996 7.07335 0.739959 9.22669C0.659959 9.62669 0.993293 10 1.39996 10V10ZM9.99996 11.3334H1.33329C0.966626 11.3334 0.666626 11.6334 0.666626 12C0.666626 12.3667 0.966626 12.6667 1.33329 12.6667H9.99996C10.3666 12.6667 10.6666 12.3667 10.6666 12C10.6666 11.6334 10.3666 11.3334 9.99996 11.3334Z" fill="white"/>
</g>
<defs>
<clipPath id="clip0_163_343">
<rect width="16" height="16" fill="white"/>
</clipPath>
</defs>
</svg>
